<svg width="64" height="64" viewBox="0 0 64 64" fill="none" xmlns="http://www.w3.org/2000/svg">
<rect width="64" height="64" rx="32" fill="#B4E466"/>
<path fill-rule="evenodd" clip-rule="evenodd" d="M39.9909 18H23.367C18.9613 18 16 21.0983 16 25.7087V25.8407C16 26.1142 16.2217 26.3359 16.4952 26.3359H46.8644C47.1379 26.3359 47.3596 26.1142 47.3596 25.8407V25.7087C47.3596 21.0983 44.3982 18 39.9909 18Z" fill="#40610B"/>
<path fill-rule="evenodd" clip-rule="evenodd" d="M16 36.5697C16 41.18 18.9613 44.2784 23.367 44.2784H31.4349C31.8771 44.2784 32.0975 43.7406 31.8332 43.3862C31.7031 43.2119 31.5843 43.0272 31.4801 42.8258C31.4289 42.7267 31.3646 42.6343 31.3216 42.5303C31.2474 42.3553 31.2011 42.1688 31.1516 41.9839C31.1318 41.908 31.0988 41.837 31.0823 41.7594C31.0278 41.4904 30.9981 41.2147 30.9981 40.9374C30.9981 40.6568 31.0278 40.3795 31.0823 40.1088C31.1005 40.0213 31.1351 39.942 31.1582 39.8579C31.2061 39.6812 31.2507 39.5046 31.32 39.3362C31.3646 39.2322 31.4273 39.1398 31.4785 39.0408C31.5511 38.9021 31.6155 38.7585 31.703 38.6265C31.7459 38.5621 31.8036 38.5093 31.8499 38.4482C31.9638 38.298 32.0744 38.1445 32.2097 38.0091L36.0673 34.163C37.6817 32.5536 40.2947 32.5586 41.9041 34.1713C42.5182 34.7883 42.8855 35.5507 43.0266 36.3472C43.0718 36.6035 43.2846 36.8059 43.5447 36.7992C44.5809 36.7724 45.6774 36.6818 46.697 36.8693C47.0169 36.9282 47.3385 36.7069 47.3514 36.3819C47.444 34.031 47.3707 31.6608 47.3606 29.3067C47.3595 29.0332 47.1378 28.8115 46.8644 28.8115H16.4952C16.2217 28.8115 16 29.0334 16 29.3067V36.5697Z" fill="#40610B"/>
<path fill-rule="evenodd" clip-rule="evenodd" d="M46.0494 39.6945H38.1195L39.8561 37.963C40.3414 37.4793 40.3414 36.6969 39.8594 36.2133C39.3757 35.728 38.5916 35.728 38.108 36.21L34.252 40.056C34.1695 40.1369 34.1167 40.2393 34.0622 40.3383C34.0391 40.3779 34.0044 40.4093 33.9862 40.4522C33.9219 40.6024 33.8872 40.7658 33.8872 40.9342C33.8872 41.1009 33.9219 41.2643 33.9862 41.4145C33.9895 41.4228 33.9978 41.4278 34.0011 41.436C34.0622 41.5747 34.1447 41.7034 34.2537 41.8107L38.1096 45.6419C38.3523 45.8813 38.6659 46.0001 38.9828 46.0001C39.2998 46.0001 39.6184 45.878 39.861 45.6353C40.343 45.15 40.3397 44.366 39.8544 43.884L38.1294 42.1706H46.0494C46.7328 42.1706 47.2874 41.6159 47.2874 40.9326C47.2874 40.2492 46.7328 39.6945 46.0494 39.6945Z" fill="#40610B"/>
</svg>
