<svg width="106" height="18" viewBox="0 0 106 18" fill="none" xmlns="http://www.w3.org/2000/svg">
<path d="M8.42759 0.39868C8.61901 -0.132892 9.38099 -0.132894 9.57241 0.398678L11.6265 6.10288C11.7126 6.34188 11.9418 6.50156 12.1989 6.50156H17.3914C17.9743 6.50156 18.2225 7.23297 17.7572 7.57931L13.4652 10.7736C13.2672 10.9209 13.1799 11.1722 13.2446 11.4083L14.8418 17.2419C14.9932 17.7947 14.3478 18.222 13.8866 17.8745L9.36883 14.4699C9.15108 14.3058 8.84894 14.3058 8.63124 14.4699L4.11584 17.8744C3.65476 18.222 3.00936 17.7949 3.1605 17.2421L4.75561 11.4082C4.82017 11.1721 4.73283 10.921 4.53494 10.7737L0.242812 7.57931C-0.222547 7.23297 0.0257196 6.50156 0.608638 6.50156H5.80111C6.0582 6.50156 6.28745 6.34189 6.37352 6.10288L8.42759 0.39868Z" fill="#D9542E"/>
<path d="M30.4276 0.39868C30.619 -0.132892 31.381 -0.132894 31.5724 0.398678L33.6265 6.10288C33.7126 6.34188 33.9418 6.50156 34.1989 6.50156H39.3914C39.9743 6.50156 40.2225 7.23297 39.7572 7.57931L35.4652 10.7736C35.2672 10.9209 35.1799 11.1722 35.2446 11.4083L36.8418 17.2419C36.9932 17.7947 36.3478 18.222 35.8866 17.8745L31.3688 14.4699C31.1511 14.3058 30.8489 14.3058 30.6312 14.4699L26.1158 17.8744C25.6548 18.222 25.0094 17.7949 25.1605 17.2421L26.7556 11.4082C26.8202 11.1721 26.7328 10.921 26.5349 10.7737L22.2428 7.57931C21.7775 7.23297 22.0257 6.50156 22.6086 6.50156H27.8011C28.0582 6.50156 28.2874 6.34189 28.3735 6.10288L30.4276 0.39868Z" fill="#D9542E"/>
<path d="M52.4276 0.39868C52.619 -0.132892 53.381 -0.132894 53.5724 0.398678L55.6265 6.10288C55.7126 6.34188 55.9418 6.50156 56.1989 6.50156H61.3914C61.9743 6.50156 62.2225 7.23297 61.7572 7.57931L57.4652 10.7736C57.2672 10.9209 57.1799 11.1722 57.2446 11.4083L58.8418 17.2419C58.9932 17.7947 58.3478 18.222 57.8866 17.8745L53.3688 14.4699C53.1511 14.3058 52.8489 14.3058 52.6312 14.4699L48.1158 17.8744C47.6548 18.222 47.0094 17.7949 47.1605 17.2421L48.7556 11.4082C48.8202 11.1721 48.7328 10.921 48.5349 10.7737L44.2428 7.57931C43.7775 7.23297 44.0257 6.50156 44.6086 6.50156H49.8011C50.0582 6.50156 50.2874 6.34189 50.3735 6.10288L52.4276 0.39868Z" fill="#D9542E"/>
<path d="M74.4276 0.39868C74.619 -0.132892 75.381 -0.132894 75.5724 0.398678L77.6265 6.10288C77.7126 6.34188 77.9418 6.50156 78.1989 6.50156H83.3914C83.9743 6.50156 84.2225 7.23297 83.7572 7.57931L79.4652 10.7736C79.2672 10.9209 79.1799 11.1722 79.2446 11.4083L80.8418 17.2419C80.9932 17.7947 80.3478 18.222 79.8866 17.8745L75.3688 14.4699C75.1511 14.3058 74.8489 14.3058 74.6312 14.4699L70.1158 17.8744C69.6548 18.222 69.0094 17.7949 69.1605 17.2421L70.7556 11.4082C70.8202 11.1721 70.7328 10.921 70.5349 10.7737L66.2428 7.57931C65.7775 7.23297 66.0257 6.50156 66.6086 6.50156H71.8011C72.0582 6.50156 72.2874 6.34189 72.3735 6.10288L74.4276 0.39868Z" fill="#D9542E"/>
<path d="M96.4276 0.39868C96.619 -0.132892 97.381 -0.132894 97.5724 0.398678L99.6265 6.10288C99.7126 6.34188 99.9418 6.50156 100.199 6.50156H105.391C105.974 6.50156 106.223 7.23297 105.757 7.57931L101.465 10.7736C101.267 10.9209 101.18 11.1722 101.245 11.4083L102.842 17.2419C102.993 17.7947 102.348 18.222 101.887 17.8745L97.3688 14.4699C97.1511 14.3058 96.8489 14.3058 96.6312 14.4699L92.1158 17.8744C91.6548 18.222 91.0094 17.7949 91.1605 17.2421L92.7556 11.4082C92.8202 11.1721 92.7328 10.921 92.5349 10.7737L88.2428 7.57931C87.7775 7.23297 88.0257 6.50156 88.6086 6.50156H93.8011C94.0582 6.50156 94.2874 6.34189 94.3735 6.10288L96.4276 0.39868Z" fill="#D9542E"/>
</svg>
