<svg width="64" height="64" viewBox="0 0 64 64" fill="none" xmlns="http://www.w3.org/2000/svg">
<rect width="64" height="64" rx="32" fill="#B4E466"/>
<path fill-rule="evenodd" clip-rule="evenodd" d="M23.6231 28.6307C22.9282 28.6307 22.3643 28.0668 22.3643 27.3719C22.3643 26.6771 22.9282 26.1132 23.6231 26.1132H40.9605C41.6554 26.1132 42.2193 26.6771 42.2193 27.3719C42.2193 28.0668 41.6554 28.6307 40.9605 28.6307H23.6231ZM32.7148 41.3023C32.7148 38.9845 34.5929 37.1064 36.9107 37.1064H39.5271C39.7694 37.1064 39.9742 36.9326 40.0421 36.6999C40.2316 36.0503 40.5806 35.4375 41.0898 34.9229C42.7228 33.2798 45.3796 33.2664 47.0244 34.8994L47.727 35.5968C48.0447 35.9121 48.5853 35.6871 48.5853 35.2393V25.999C48.5853 21.214 45.5122 18 40.9387 18H23.6449C19.0731 18 16 21.214 16 25.999V37.2978C16 42.0828 19.0731 45.2968 23.6449 45.2968H33.4444C34.1113 45.2968 34.4861 44.7305 33.8116 44.1146C33.131 43.3744 32.7148 42.3897 32.7148 41.3023Z" fill="#40610B"/>
<path fill-rule="evenodd" clip-rule="evenodd" d="M48.6783 41.7909C48.7437 41.6365 48.779 41.4704 48.779 41.3009C48.779 41.1313 48.7437 40.9652 48.6783 40.8125C48.6749 40.8041 48.6665 40.7973 48.6632 40.789C48.5994 40.6497 48.5171 40.5187 48.4064 40.408L44.9557 36.9841C44.4622 36.4924 43.665 36.4991 43.1749 36.9908C42.6849 37.4843 42.6882 38.2815 43.1816 38.7716L44.4639 40.0438H36.9096C36.2148 40.0438 35.6509 40.6077 35.6509 41.3025C35.6509 41.9974 36.2148 42.5613 36.9096 42.5613H44.474L43.18 43.8503C42.6882 44.342 42.6865 45.1392 43.1766 45.631C43.4233 45.8777 43.7456 46.0002 44.0695 46.0002C44.3901 46.0002 44.7123 45.8777 44.9573 45.6344L48.408 42.1937C48.492 42.1098 48.544 42.0074 48.6011 41.9051C48.6245 41.8648 48.6598 41.8346 48.6783 41.7909Z" fill="#40610B"/>
</svg>
