<svg width="26" height="24" viewBox="0 0 26 24" fill="none" xmlns="http://www.w3.org/2000/svg">
<path d="M10.124 5.05119C6.51632 5.05119 3.99602 7.70604 3.99602 11.507V17.4768C3.99602 17.8493 3.51442 17.9871 3.32305 17.6694L0.860531 13.5815C-0.718001 10.8971 -0.0849331 8.0639 2.43197 6.52557L11.8114 0.783021C14.327 -0.749153 17.0871 0.0119994 18.6789 2.67425L19.754 4.49234C19.8994 4.73821 19.725 5.05119 19.4428 5.05119H10.124Z" fill="#3F8BFB"/>
<path fill-rule="evenodd" clip-rule="evenodd" d="M10.1234 6.28044H21.0815C24.0232 6.28044 26 8.38073 26 11.5065V18.7862C26 21.9046 24.0219 24 21.0803 24H10.1234C7.18293 24 5.206 21.9046 5.206 18.7862V11.5065C5.206 8.38073 7.18293 6.28044 10.1234 6.28044ZM10.1075 13.3142H21.0936C21.5947 13.3142 22.0015 12.901 22.0015 12.3919C22.0015 11.8828 21.5947 11.4697 21.0936 11.4697H10.1075C9.60644 11.4697 9.19962 11.8828 9.19962 12.3919C9.19962 12.901 9.60644 13.3142 10.1075 13.3142Z" fill="#3F8BFB"/>
<path d="M10.124 5.05119C6.51632 5.05119 3.99602 7.70604 3.99602 11.507V17.4768C3.99602 17.8493 3.51442 17.9871 3.32305 17.6694L0.860531 13.5815C-0.718001 10.8971 -0.084933 8.0639 2.43197 6.52557L11.8114 0.783021C14.327 -0.749153 17.0871 0.0119994 18.6789 2.67425L19.754 4.49234C19.8994 4.73821 19.725 5.05119 19.4428 5.05119H10.124Z" fill="#B4E466"/>
</svg>
