<svg width="122" height="24" viewBox="0 0 122 24" fill="none" xmlns="http://www.w3.org/2000/svg">
<path d="M45.7622 2.2V4.84H38.6822V9.544H45.5222V12.184H38.6822V19H35.9222V2.2H45.7622ZM50.6241 4.72C50.3041 5.04 49.9201 5.2 49.4721 5.2C49.0241 5.2 48.6321 5.04 48.2961 4.72C47.9761 4.384 47.8161 3.992 47.8161 3.544C47.8161 3.096 47.9761 2.712 48.2961 2.392C48.6161 2.056 49.0081 1.888 49.4721 1.888C49.9361 1.888 50.3281 2.056 50.6481 2.392C50.9681 2.712 51.1281 3.096 51.1281 3.544C51.1281 3.992 50.9601 4.384 50.6241 4.72ZM50.7681 19H48.1761V7H50.7681V19ZM60.0896 6.688C61.4816 6.688 62.5936 7.136 63.4256 8.032C64.2736 8.912 64.6976 10.112 64.6976 11.632V19H62.1056V11.896C62.1056 11 61.8656 10.312 61.3856 9.832C60.9056 9.352 60.2496 9.112 59.4176 9.112C58.4736 9.112 57.7296 9.408 57.1856 10C56.6416 10.576 56.3696 11.432 56.3696 12.568V19H53.7776V7H56.3696V8.536C57.1696 7.304 58.4096 6.688 60.0896 6.688ZM73.2486 19.312C71.6326 19.312 70.2566 18.952 69.1206 18.232C68.0006 17.496 67.2166 16.48 66.7686 15.184L69.1446 13.792C69.8166 15.68 71.2086 16.624 73.3206 16.624C74.3446 16.624 75.1206 16.424 75.6486 16.024C76.1766 15.624 76.4406 15.088 76.4406 14.416C76.4406 13.744 76.1606 13.224 75.6006 12.856C75.0406 12.488 74.0486 12.088 72.6246 11.656C71.1686 11.224 69.9926 10.712 69.0966 10.12C68.0086 9.352 67.4646 8.224 67.4646 6.736C67.4646 5.248 67.9926 4.072 69.0486 3.208C70.0886 2.328 71.3606 1.888 72.8646 1.888C74.1926 1.888 75.3606 2.216 76.3686 2.872C77.3926 3.512 78.1766 4.416 78.7206 5.584L76.3926 6.928C75.6886 5.36 74.5126 4.576 72.8646 4.576C72.0646 4.576 71.4246 4.768 70.9446 5.152C70.4646 5.52 70.2246 6.024 70.2246 6.664C70.2246 7.288 70.4646 7.784 70.9446 8.152C71.4246 8.504 72.3126 8.88 73.6086 9.28C74.4086 9.552 74.8726 9.712 75.0006 9.76C75.2086 9.824 75.6246 9.984 76.2486 10.24C76.7606 10.448 77.1686 10.672 77.4726 10.912C78.7206 11.888 79.2966 13.04 79.2006 14.368C79.2006 15.888 78.6486 17.096 77.5446 17.992C76.4726 18.872 75.0406 19.312 73.2486 19.312ZM89.5219 13.432V7H92.1139V19H89.5219V17.464C88.7219 18.696 87.4819 19.312 85.8019 19.312C84.4099 19.312 83.2899 18.872 82.4419 17.992C81.6099 17.096 81.1939 15.888 81.1939 14.368V7H83.7859V14.104C83.7859 15 84.0259 15.688 84.5059 16.168C84.9859 16.648 85.6419 16.888 86.4739 16.888C87.4179 16.888 88.1619 16.6 88.7059 16.024C89.2499 15.432 89.5219 14.568 89.5219 13.432ZM97.5928 4.72C97.2728 5.04 96.8888 5.2 96.4408 5.2C95.9928 5.2 95.6008 5.04 95.2648 4.72C94.9448 4.384 94.7848 3.992 94.7848 3.544C94.7848 3.096 94.9448 2.712 95.2648 2.392C95.5848 2.056 95.9768 1.888 96.4408 1.888C96.9048 1.888 97.2968 2.056 97.6168 2.392C97.9368 2.712 98.0968 3.096 98.0968 3.544C98.0968 3.992 97.9288 4.384 97.5928 4.72ZM97.7368 19H95.1448V7H97.7368V19ZM107.442 7V9.496H104.466V15.256C104.466 15.752 104.578 16.112 104.802 16.336C105.026 16.544 105.354 16.664 105.786 16.696C106.234 16.712 106.786 16.704 107.442 16.672V19C105.458 19.24 104.034 19.072 103.17 18.496C102.306 17.904 101.874 16.824 101.874 15.256V9.496H99.6664V7H101.874V4.408L104.466 3.64V7H107.442ZM120.893 14.104H111.341C111.533 15 111.965 15.696 112.637 16.192C113.325 16.688 114.173 16.936 115.181 16.936C116.541 16.936 117.573 16.44 118.277 15.448L120.413 16.696C119.245 18.44 117.493 19.312 115.157 19.312C113.221 19.312 111.645 18.72 110.429 17.536C109.229 16.336 108.629 14.824 108.629 13C108.629 11.224 109.221 9.728 110.405 8.512C111.573 7.296 113.093 6.688 114.965 6.688C116.709 6.688 118.149 7.304 119.285 8.536C120.421 9.768 120.989 11.264 120.989 13.024C120.989 13.344 120.957 13.704 120.893 14.104ZM111.317 11.992H118.373C118.197 11.048 117.797 10.32 117.173 9.808C116.565 9.296 115.821 9.04 114.941 9.04C113.981 9.04 113.181 9.304 112.541 9.832C111.901 10.36 111.493 11.08 111.317 11.992Z" fill="#0C0B1F"/>
<path d="M10.124 5.05119C6.51632 5.05119 3.99602 7.70604 3.99602 11.507V17.4768C3.99602 17.8493 3.51442 17.9871 3.32305 17.6694L0.860531 13.5815C-0.718001 10.8971 -0.0849331 8.0639 2.43197 6.52557L11.8114 0.783021C14.327 -0.749153 17.0871 0.0119994 18.6789 2.67425L19.754 4.49234C19.8994 4.73821 19.725 5.05119 19.4428 5.05119H10.124Z" fill="#3F8BFB"/>
<path fill-rule="evenodd" clip-rule="evenodd" d="M10.1234 6.28044H21.0815C24.0232 6.28044 26 8.38073 26 11.5065V18.7862C26 21.9046 24.0219 24 21.0803 24H10.1234C7.18293 24 5.206 21.9046 5.206 18.7862V11.5065C5.206 8.38073 7.18293 6.28044 10.1234 6.28044ZM10.1075 13.3142H21.0936C21.5947 13.3142 22.0015 12.901 22.0015 12.3919C22.0015 11.8828 21.5947 11.4697 21.0936 11.4697H10.1075C9.60644 11.4697 9.19962 11.8828 9.19962 12.3919C9.19962 12.901 9.60644 13.3142 10.1075 13.3142Z" fill="#3F8BFB"/>
<path d="M10.124 5.05119C6.51632 5.05119 3.99602 7.70604 3.99602 11.507V17.4768C3.99602 17.8493 3.51442 17.9871 3.32305 17.6694L0.860531 13.5815C-0.718001 10.8971 -0.084933 8.0639 2.43197 6.52557L11.8114 0.783021C14.327 -0.749153 17.0871 0.0119994 18.6789 2.67425L19.754 4.49234C19.8994 4.73821 19.725 5.05119 19.4428 5.05119H10.124Z" fill="#B4E466"/>
</svg>
